<?xml version="1.0" standalone="no"?>
<!DOCTYPE svg PUBLIC "-//W3C//DTD SVG 20010904//EN"
 "http://www.w3.org/TR/2001/REC-SVG-20010904/DTD/svg10.dtd">
<svg version="1.0" xmlns="http://www.w3.org/2000/svg"
 width="1024.000000pt" height="1024.000000pt" viewBox="0 0 1024.000000 1024.000000"
 preserveAspectRatio="xMidYMid meet">

<g transform="translate(0.000000,1024.000000) scale(0.100000,-0.100000)"
fill="#000000" stroke="none">
<path d="M0 5120 l0 -5120 5120 0 5120 0 0 5120 0 5120 -5120 0 -5120 0 0
-5120z m6477 3331 c87 -40 103 -149 32 -217 l-30 -29 -1311 -3 c-1449 -2
-1337 -7 -1378 61 -40 66 -13 153 60 189 33 17 116 18 1310 18 1229 0 1276 -1
1317 -19z m-2669 -375 c15 -8 36 -24 47 -36 19 -21 20 -36 20 -294 0 -261 1
-274 27 -366 33 -122 93 -258 153 -351 145 -225 277 -332 555 -449 154 -64
214 -97 307 -167 80 -60 152 -144 209 -240 l37 -64 28 50 c43 80 95 146 166
211 109 99 167 133 388 226 219 91 380 223 500 408 175 270 225 487 205 893
-5 92 -3 104 16 130 11 15 37 37 57 48 34 18 39 19 78 5 89 -31 103 -93 96
-405 -4 -204 -7 -228 -34 -335 -57 -216 -131 -370 -258 -538 -154 -203 -281
-302 -565 -439 -107 -52 -223 -114 -256 -139 -112 -80 -207 -201 -261 -336
-42 -103 -52 -192 -53 -446 0 -200 -2 -238 -17 -262 -35 -59 -108 -67 -158
-17 l-33 33 -5 264 c-5 295 -14 346 -82 478 -47 92 -65 117 -137 190 -86 87
-163 136 -370 235 -215 103 -304 163 -428 287 -156 156 -269 342 -349 574 -51
148 -71 282 -71 477 1 255 20 336 90 371 42 22 63 22 98 4z m669 -26 c55 -25
83 -70 83 -135 0 -92 -54 -145 -148 -145 -160 0 -202 208 -57 280 49 25 69 25
122 0z m-1217 -175 c16 -8 34 -24 40 -34 13 -25 13 -77 0 -100 -5 -10 -62 -61
-127 -112 -265 -211 -511 -480 -689 -755 -76 -117 -218 -398 -279 -552 -51
-131 -76 -162 -126 -162 -44 0 -77 20 -95 58 -16 33 -15 39 1 91 56 183 164
420 276 607 181 300 437 593 724 829 173 142 214 162 275 130z m3910 -6 c19
-12 98 -72 175 -134 322 -259 593 -583 790 -942 103 -189 215 -472 215 -545 0
-43 -48 -88 -93 -88 -61 0 -88 34 -147 182 -112 281 -268 551 -449 778 -110
139 -367 391 -508 499 -137 106 -162 139 -143 195 24 73 92 96 160 55z m-2755
-236 c178 -29 466 -116 660 -199 l81 -35 178 66 c268 99 507 164 661 180 33 3
70 8 83 11 18 4 22 0 22 -22 0 -57 -44 -195 -95 -299 -91 -184 -204 -301 -449
-462 -199 -131 -294 -232 -366 -390 -13 -29 -26 -53 -29 -53 -4 0 -14 22 -23
48 -25 68 -91 167 -154 229 -30 29 -130 103 -222 165 -259 174 -391 317 -469
510 -29 71 -63 202 -63 245 l0 33 48 -6 c26 -3 88 -12 137 -21z m-1105 -214
c0 -15 7 -61 15 -101 26 -122 19 -128 -146 -128 -106 0 -139 12 -139 50 0 33
11 46 110 131 127 110 132 113 147 93 7 -10 13 -30 13 -45z m3796 10 c28 -21
79 -68 113 -104 68 -71 76 -99 31 -123 -32 -17 -243 -13 -261 5 -10 10 -10 32
0 100 6 48 14 107 17 131 5 39 8 42 27 36 12 -3 45 -24 73 -45z m-3717 -435
c28 -35 26 -69 -4 -99 l-24 -25 -279 0 c-257 0 -282 2 -302 18 -30 24 -29 76
1 108 l22 24 283 0 283 0 20 -26z m4126 20 c8 -4 22 -19 30 -34 17 -33 4 -84
-25 -100 -11 -6 -132 -10 -290 -10 l-271 0 -24 25 c-14 13 -25 36 -25 50 0 14
11 37 25 50 l24 25 270 0 c148 0 277 -3 286 -6z m-3931 -335 c33 -26 36 -79 6
-109 -19 -19 -35 -20 -367 -22 -445 -4 -600 -1 -624 12 -22 12 -34 50 -25 85
13 53 22 54 522 55 452 0 462 0 488 -21z m4143 -1 c16 -15 23 -33 23 -58 0
-70 18 -67 -505 -74 -510 -7 -507 -8 -533 47 -11 22 -11 32 0 54 25 52 27 53
527 53 463 0 465 0 488 -22z m-4927 -340 c27 -30 26 -73 -5 -103 -23 -24 -28
-25 -175 -25 -187 0 -220 12 -220 84 0 12 7 32 16 44 15 21 21 22 189 22 166
0 175 -1 195 -22z m1090 5 c35 -23 40 -33 40 -74 0 -24 -7 -42 -21 -55 -19
-17 -43 -20 -248 -25 -207 -5 -231 -7 -284 -29 -228 -92 -289 -371 -118 -540
82 -81 124 -93 344 -100 173 -5 179 -6 198 -29 35 -43 21 -99 -31 -126 -41
-21 -342 -21 -425 0 -95 25 -164 63 -229 129 -201 202 -190 548 22 737 54 48
167 105 233 118 24 5 145 9 269 10 197 1 229 -1 250 -16z m3095 2 c143 -38
268 -143 332 -282 32 -69 37 -89 41 -180 5 -113 -14 -197 -65 -288 -63 -114
-200 -213 -326 -236 -32 -6 -135 -9 -229 -7 l-170 3 -24 28 c-42 50 -23 118
38 131 13 3 93 7 178 8 142 3 160 6 211 30 73 33 128 84 165 150 26 48 29 62
29 148 0 83 -3 101 -27 145 -34 65 -104 130 -176 163 -55 25 -65 26 -289 32
-228 5 -232 5 -257 29 -42 40 -33 101 19 129 33 19 477 15 550 -3z m912 -7
c28 -26 30 -67 4 -99 -18 -23 -25 -24 -178 -27 -149 -3 -160 -2 -186 18 -31
25 -36 72 -11 108 15 21 21 22 181 22 157 0 168 -1 190 -22z m-3718 -343 c31
-15 41 -33 41 -70 0 -78 -24 -85 -297 -85 l-228 -1 -27 -45 c-63 -103 -201
-90 -239 23 -22 68 31 161 106 182 16 5 162 10 323 10 239 1 298 -2 321 -14z
m2640 -10 c47 -27 71 -64 78 -115 8 -56 -16 -100 -69 -130 -68 -38 -140 -14
-178 60 l-20 40 -219 0 -219 0 -31 26 c-25 21 -31 33 -31 65 0 34 5 42 33 59
30 20 46 20 327 18 274 -3 297 -4 329 -23z m-4154 -160 c30 -29 32 -64 5 -97
l-19 -25 -355 -8 c-390 -8 -415 -5 -441 45 -21 40 -19 57 10 85 l24 25 376 0
376 0 24 -25z m5789 4 c32 -25 35 -75 7 -110 l-19 -24 -382 0 -382 0 -24 28
c-31 36 -31 71 1 102 l24 25 374 0 c364 0 375 -1 401 -21z m-3632 -15 c36 -19
58 -63 58 -115 0 -40 -5 -47 -98 -138 -109 -108 -157 -179 -199 -296 l-28 -80
-5 -795 c-4 -706 -7 -799 -21 -830 -56 -120 -208 -141 -292 -40 -53 62 -52 50
-52 835 0 667 2 737 18 815 50 234 213 479 403 605 99 66 146 74 216 39z m847
6 c192 -87 385 -331 447 -565 38 -141 -12 -235 -126 -235 -73 0 -120 48 -159
161 -59 175 -111 253 -248 370 -101 86 -129 129 -118 180 13 58 75 108 135
108 14 0 45 -8 69 -19z m-3449 -330 c28 -28 26 -75 -5 -105 -24 -25 -26 -25
-205 -25 -179 0 -181 0 -205 25 -14 13 -25 36 -25 50 0 14 11 37 25 50 24 25
26 25 210 25 172 0 186 -1 205 -20z m538 0 c32 -30 30 -82 -4 -109 -24 -19
-40 -21 -180 -21 l-153 0 -20 26 c-29 37 -27 78 5 103 24 19 40 21 178 21 139
0 154 -2 174 -20z m5750 4 c30 -21 30 -79 0 -111 l-21 -23 -451 0 c-448 0
-450 0 -473 22 -29 27 -31 80 -3 108 19 19 33 20 473 20 393 0 455 -2 475 -16z
m-1676 -384 c17 -1 82 -68 94 -97 11 -26 14 -166 14 -725 0 -653 -2 -695 -19
-734 -32 -71 -105 -111 -187 -101 -66 7 -117 46 -151 114 l-28 58 0 660 c0
606 1 664 18 706 35 90 125 145 211 128 23 -5 44 -8 48 -9z m-3747 -1 c137
-37 193 -208 102 -308 -47 -51 -88 -61 -269 -61 l-168 0 -2 -648 -3 -649 -29
-41 c-33 -48 -112 -92 -165 -92 -76 0 -169 72 -190 147 -7 25 -11 257 -11 661
l0 622 -252 0 c-231 0 -255 2 -293 20 -53 26 -83 68 -97 134 -11 51 -10 57 18
112 25 51 37 63 83 87 l55 27 590 0 c396 0 604 -4 631 -11z m652 -25 c131 -63
186 -232 119 -367 -30 -62 -92 -117 -153 -138 -46 -15 -159 -7 -204 14 -57 28
-116 94 -139 154 -39 104 -19 200 59 284 83 91 201 110 318 53z m4744 25 c146
-44 187 -218 76 -316 -20 -18 -53 -37 -74 -42 -23 -7 -181 -11 -410 -11 l-373
0 0 -159 0 -159 168 -4 c191 -4 231 -17 276 -86 49 -74 43 -151 -17 -219 -50
-57 -76 -63 -262 -63 l-165 0 0 -170 0 -170 355 0 c394 0 397 0 452 -63 63
-71 65 -168 7 -244 -53 -70 -39 -68 -539 -68 l-450 0 -56 26 c-66 31 -124 87
-153 149 -21 44 -21 54 -21 720 0 665 0 676 21 721 30 65 81 119 139 145 l50
24 469 0 c322 0 481 -4 507 -11z m-3333 -159 c59 -27 82 -54 259 -313 l156
-227 117 157 c130 175 167 215 222 237 50 21 134 20 184 -3 50 -23 98 -80 113
-135 9 -29 11 -190 9 -551 l-3 -510 -25 -45 c-14 -24 -44 -58 -68 -74 -36 -26
-53 -31 -101 -31 -77 0 -128 33 -165 106 l-26 53 0 280 0 281 -34 -50 c-129
-193 -308 -194 -435 -4 l-41 61 0 -279 0 -279 -27 -55 c-38 -74 -93 -112 -165
-112 -87 0 -160 48 -193 125 -13 32 -15 119 -15 643 0 584 1 607 20 645 28 56
93 97 155 99 11 0 39 -8 63 -19z m-3213 -534 c27 -27 27 -27 55 -195 27 -167
26 -186 -9 -222 -37 -36 -62 -37 -101 -1 -27 24 -33 42 -60 177 -38 186 -38
199 -1 236 37 37 82 39 116 5z m1748 -97 c37 -40 36 -82 -2 -120 -22 -21 -39
-29 -66 -29 -49 0 -95 44 -95 92 0 34 33 77 70 91 27 10 65 -3 93 -34z m4842
-9 c40 -44 9 -120 -50 -120 -28 0 -75 46 -75 73 0 56 87 89 125 47z m-4833
-356 c58 -19 123 -74 149 -126 27 -53 35 -136 19 -192 -25 -92 -125 -173 -223
-183 -179 -18 -324 155 -274 328 42 143 190 221 329 173z m-1642 -144 c27 -27
26 -74 -2 -100 -26 -24 -56 -26 -86 -4 -31 21 -31 87 0 108 31 22 64 20 88 -4z
m2588 -657 c11 -10 42 -67 68 -128 26 -60 82 -188 126 -283 43 -95 78 -182 78
-192 0 -50 -80 -68 -117 -27 -11 12 -28 37 -37 55 l-17 33 -127 -3 -127 -3
-17 -37 c-10 -20 -28 -44 -40 -52 -27 -19 -79 -21 -96 -4 -20 20 -14 75 14
130 14 28 64 138 110 245 100 230 119 269 136 276 21 9 25 8 46 -10z m797 -9
c43 -18 78 -58 71 -81 -3 -10 -20 -27 -36 -37 -27 -16 -36 -16 -80 -5 -67 17
-121 0 -176 -55 -72 -71 -80 -151 -25 -238 46 -72 141 -107 216 -78 33 13 81
-10 98 -47 10 -23 8 -28 -20 -54 -93 -83 -290 -50 -388 64 -60 70 -79 122 -79
212 0 174 101 306 255 333 52 10 122 4 164 -14z m339 5 c22 -17 26 -28 26 -73
0 -29 3 -74 6 -99 l7 -47 109 115 c107 112 111 115 153 115 34 0 47 -5 59 -22
9 -12 16 -29 16 -37 0 -8 -52 -67 -115 -131 -63 -64 -115 -121 -115 -126 0 -6
46 -59 103 -118 105 -113 137 -152 137 -173 0 -27 -40 -53 -79 -53 -36 0 -44
6 -152 124 -63 68 -117 125 -121 125 -5 1 -8 -47 -8 -106 0 -85 -3 -110 -17
-125 -20 -22 -70 -23 -95 -1 -17 15 -18 38 -18 315 0 285 1 299 20 318 26 26
51 25 84 -1z m-2304 -7 c29 -24 30 -77 1 -106 -16 -16 -37 -21 -91 -24 l-70
-4 0 -238 c0 -204 -2 -241 -16 -254 -22 -22 -70 -20 -94 4 -19 19 -20 33 -20
260 l0 240 -74 0 c-69 0 -76 2 -95 26 -27 35 -26 59 4 89 24 25 25 25 228 25
184 0 207 -2 227 -18z m505 7 c50 -13 127 -74 151 -120 55 -107 25 -248 -63
-296 -18 -10 -33 -18 -33 -19 0 -1 20 -32 45 -68 64 -96 59 -146 -14 -146 -38
0 -82 40 -143 131 -33 49 -34 49 -82 47 l-49 -3 -1 -73 c-1 -83 -14 -102 -72
-102 -62 0 -64 10 -64 332 0 355 -13 328 161 328 66 0 140 -5 164 -11z m2782
-11 c28 -26 30 -67 4 -99 -18 -23 -27 -24 -145 -27 l-126 -4 0 -59 0 -59 55 0
c30 0 65 -5 78 -11 54 -24 54 -99 2 -119 -15 -6 -53 -10 -86 -10 l-60 0 3 -57
3 -58 133 -5 c117 -4 135 -7 148 -24 20 -28 17 -63 -6 -86 -18 -18 -33 -20
-194 -20 l-175 0 -20 26 c-20 26 -21 39 -21 307 0 358 -20 327 214 327 160 0
171 -1 193 -22z m543 -2 c49 -25 98 -74 121 -119 28 -55 28 -142 0 -201 -21
-42 -64 -89 -92 -98 -6 -2 11 -35 40 -78 28 -41 51 -83 51 -92 0 -26 -29 -48
-64 -48 -36 0 -74 35 -140 128 -37 51 -39 52 -87 52 l-49 0 0 -60 c0 -96 -29
-132 -93 -116 -43 10 -47 40 -47 322 0 272 5 311 42 328 7 3 74 4 148 3 108
-2 142 -6 170 -21z m-4718 -209 c53 -45 108 -121 108 -151 0 -41 -35 -76 -76
-76 -26 0 -41 10 -88 64 -64 74 -77 101 -64 136 19 53 74 65 120 27z m5342 2
c41 -32 35 -71 -20 -133 -72 -80 -109 -93 -158 -55 -51 40 -22 108 78 181 47
33 65 35 100 7z m-3024 -644 c37 -19 50 -43 50 -95 0 -60 -33 -90 -100 -90
l-50 0 0 -37 c0 -49 -12 -66 -41 -61 -24 3 -24 4 -27 142 -2 105 1 141 10 148
22 13 127 9 158 -7z m314 1 c18 -8 41 -24 50 -37 22 -33 20 -91 -4 -122 l-21
-26 21 -41 c23 -46 20 -60 -15 -60 -25 0 -75 51 -75 76 0 8 -10 14 -25 14 -22
0 -25 -5 -25 -32 0 -44 -12 -60 -41 -56 -24 3 -24 4 -27 142 -2 105 1 141 10
148 21 13 116 9 152 -6z m374 0 c88 -46 114 -165 50 -233 -90 -97 -248 -52
-265 76 -7 53 26 124 69 151 39 23 107 26 146 6z m-1149 -80 c31 -28 28 -79
-5 -105 -23 -18 -41 -21 -124 -21 -83 0 -101 3 -124 21 -44 35 -32 100 24 122
8 4 58 5 111 4 79 -2 101 -5 118 -21z m1792 -5 c24 -30 24 -63 0 -92 -17 -22
-29 -24 -116 -27 -121 -5 -143 1 -159 40 -15 35 -11 60 12 81 25 22 49 26 151
23 84 -2 95 -4 112 -25z m-2438 -131 c275 -143 421 -198 705 -270 251 -63 355
-74 692 -75 345 0 430 9 700 75 265 66 523 165 733 282 139 77 140 78 170 78
39 0 64 -15 82 -50 39 -75 4 -118 -172 -218 -144 -82 -276 -141 -468 -210
-746 -268 -1604 -232 -2321 96 -162 74 -324 165 -379 213 -47 42 -49 96 -6
140 46 45 71 39 264 -61z"/>
<path d="M4578 2813 l-25 -68 55 -3 c30 -2 57 -1 59 2 7 6 -49 136 -58 136 -3
0 -17 -30 -31 -67z"/>
<path d="M3780 2916 c0 -109 -3 -106 102 -106 64 0 72 2 99 29 39 39 40 96 3
140 -25 30 -28 31 -115 31 l-89 0 0 -94z"/>
<path d="M7080 2910 l0 -100 71 0 c106 0 148 31 149 108 0 32 -6 49 -25 67
-22 23 -32 25 -110 25 l-85 0 0 -100z"/>
<path d="M4800 2195 c0 -24 3 -26 38 -23 29 2 37 7 37 23 0 16 -8 21 -37 23
-35 3 -38 1 -38 -23z"/>
<path d="M5132 2218 c-18 -18 -14 -45 8 -51 34 -9 60 3 60 28 0 33 -44 47 -68
23z"/>
<path d="M5476 2209 c-20 -16 -26 -29 -26 -59 0 -44 35 -80 77 -80 34 0 73 42
73 80 0 38 -39 80 -73 80 -13 0 -36 -9 -51 -21z"/>
</g>
</svg>
